<svg width="995" height="167" viewBox="0 0 995 167" fill="none" xmlns="http://www.w3.org/2000/svg">
<path d="M807.01 104.188C807.969 104.188 809.26 103.125 810.885 101C812.51 98.875 814.323 95.9792 816.323 92.3125C818.365 88.6458 820.51 84.375 822.76 79.5C825.01 74.625 827.24 69.4583 829.448 64C826.156 67.9167 823.094 71.7917 820.26 75.625C817.469 79.4583 815.031 83.1042 812.948 86.5625C810.906 89.9792 809.302 93.1458 808.135 96.0625C806.969 98.9375 806.385 101.396 806.385 103.438C806.385 103.938 806.594 104.188 807.01 104.188Z" fill="white"/>
<path fill-rule="evenodd" clip-rule="evenodd" d="M899.073 26.625C899.073 30.875 898.302 35.2917 896.76 39.875C895.26 44.4167 892.906 48.8542 889.698 53.1875C886.531 57.5208 882.469 61.6458 877.51 65.5625C872.552 69.4792 859.76 75.8125 859.76 75.8125C864.135 89.6875 866.135 99.6875 871.135 107.688C876.135 115.688 878.135 116.688 880.135 118.688C882.135 120.688 897.462 130.045 910.114 132.575C923.544 135.261 932.265 135.373 945.135 130.688C960.558 125.072 974.232 119.593 977.135 103.438C978.806 94.1394 976.369 89.3024 971.135 82.6875C968.296 79.0998 965.434 78.0801 962.135 75.1875C957.056 70.7353 952.977 65.1587 955.884 59.0625C958.631 53.3014 964.779 52.602 971.135 53.1875C980.465 54.047 983.161 62.2934 987.834 70.4142C993.938 81.0224 995.496 89.013 993.943 101.153C990.988 124.256 976.516 135.745 955.884 145.5C939.29 153.346 925.948 153.178 909.155 150.55C892.262 147.905 881.405 143.547 870.135 130.688C861.431 120.757 859.905 112.574 856.073 99.9375C854.815 95.7907 854.24 92.9375 853.323 89.1875C852.448 85.3958 851.594 81.5 850.76 77.5C849.969 73.4583 849.26 69.4375 848.635 65.4375C853.927 63.6042 858.656 61.5417 862.823 59.25C867.031 56.9583 870.719 54.5417 873.885 52C877.052 49.4167 879.74 46.7708 881.948 44.0625C884.156 41.3542 885.948 38.6875 887.323 36.0625C888.74 33.4375 889.76 30.9167 890.385 28.5C891.052 26.0417 891.385 23.7917 891.385 21.75C891.385 20.9583 891.323 20.2708 891.198 19.6875C891.073 19.0625 890.823 18.5625 890.448 18.1875C890.073 17.8125 889.531 17.5833 888.823 17.5C888.156 17.375 887.26 17.3958 886.135 17.5625C884.177 17.9792 882.01 18.75 879.635 19.875C877.302 21 874.823 22.4167 872.198 24.125C869.615 25.7917 866.906 27.7292 864.073 29.9375C861.281 32.1458 858.448 34.5208 855.573 37.0625C854.031 41.8958 852.26 47.0208 850.26 52.4375C848.26 57.8125 846.094 63.1875 843.76 68.5625C841.427 73.8958 838.969 79.0833 836.385 84.125C833.844 89.1667 831.24 93.7917 828.573 98C825.948 102.167 823.302 105.771 820.635 108.812C818.01 111.896 815.469 114.104 813.01 115.438C812.385 115.771 811.615 116.083 810.698 116.375C809.823 116.667 808.719 116.875 807.385 117C806.885 117.042 806.302 116.833 805.635 116.375C804.927 115.917 804.219 115.333 803.51 114.625C802.802 113.917 802.094 113.125 801.385 112.25C800.677 111.375 800.031 110.542 799.448 109.75C798.823 108.958 798.323 108.25 797.948 107.625C797.531 107 797.26 106.583 797.135 106.375C796.802 105.75 796.635 105 796.635 104.125C796.594 103.292 796.677 102.458 796.885 101.625C797.719 98.8333 798.885 95.7708 800.385 92.4375C801.885 89.1042 803.656 85.625 805.698 82C807.698 78.3333 809.927 74.5833 812.385 70.75C814.885 66.875 817.552 63.0417 820.385 59.25C823.26 55.4167 826.26 51.6458 829.385 47.9375C832.552 44.2292 835.802 40.6875 839.135 37.3125C841.26 30.6875 843.01 24.4167 844.385 18.5C845.76 12.5833 846.573 7.4375 846.823 3.0625C848.49 3.72917 850.073 4.58333 851.573 5.625C853.073 6.66667 854.427 7.75 855.635 8.875C856.844 10 857.906 11.125 858.823 12.25C859.74 13.375 860.469 14.375 861.01 15.25C860.927 15.9583 860.823 16.6875 860.698 17.4375C860.573 18.1458 860.406 18.9167 860.198 19.75C864.406 17.0417 868.531 14.9375 872.573 13.4375C876.656 11.8958 880.615 11.125 884.448 11.125C885.365 11.125 886.365 11.3958 887.448 11.9375C888.531 12.4375 889.594 13.125 890.635 14C891.719 14.8333 892.76 15.8125 893.76 16.9375C894.76 18.0208 895.635 19.1458 896.385 20.3125C897.177 21.4375 897.802 22.5625 898.26 23.6875C898.76 24.7708 899.031 25.75 899.073 26.625ZM810.885 101C809.26 103.125 807.969 104.188 807.01 104.188C806.594 104.188 806.385 103.938 806.385 103.438C806.385 101.396 806.969 98.9375 808.135 96.0625C809.302 93.1458 810.906 89.9792 812.948 86.5625C815.031 83.1042 817.469 79.4583 820.26 75.625C823.094 71.7917 826.156 67.9167 829.448 64C827.24 69.4583 825.01 74.625 822.76 79.5C820.51 84.375 818.365 88.6458 816.323 92.3125C814.323 95.9792 812.51 98.875 810.885 101Z" fill="white"/>
<path d="M789.01 42.875C790.593 41.5833 792.135 39.9792 793.635 38.0625C795.135 36.1458 796.468 34.125 797.635 32C798.801 29.875 799.739 27.7083 800.447 25.5C801.156 23.2917 801.51 21.2292 801.51 19.3125C801.51 17.7708 801.135 16.4792 800.385 15.4375C799.676 14.3542 798.364 13.8125 796.447 13.8125C794.822 13.8125 793.031 14.1875 791.072 14.9375C789.114 15.6875 787.135 16.7292 785.135 18.0625C783.135 19.3542 781.176 20.9167 779.26 22.75C777.385 24.5417 775.718 26.5 774.26 28.625C772.801 30.75 771.614 32.9792 770.697 35.3125C769.822 37.6458 769.385 40 769.385 42.375C769.385 44.4167 769.635 46.1875 770.135 47.6875C770.635 49.1458 771.364 50.4583 772.322 51.625C773.281 52.75 774.426 53.7917 775.76 54.75C777.135 55.7083 778.697 56.7083 780.447 57.75C775.197 59.9583 770.364 62.6875 765.947 65.9375C761.572 69.1458 757.801 72.625 754.635 76.375C751.468 80.125 748.989 84 747.197 88C745.447 91.9583 744.572 95.7708 744.572 99.4375C744.572 100.729 744.885 101.875 745.51 102.875C746.135 103.833 747.114 104.312 748.447 104.312C750.197 104.312 752.156 103.833 754.322 102.875C756.489 101.917 758.739 100.667 761.072 99.125C763.406 97.5833 765.739 95.8542 768.072 93.9375C770.447 92.0208 772.656 90.1042 774.697 88.1875C776.781 86.2292 778.635 84.375 780.26 82.625C781.885 80.875 783.176 79.3958 784.135 78.1875C786.635 80.1875 788.801 81.9792 790.635 83.5625C792.468 85.1042 794.176 86.5208 795.76 87.8125C795.051 88.7708 793.864 90.1042 792.197 91.8125C790.572 93.5208 788.614 95.3542 786.322 97.3125C784.072 99.2708 781.593 101.271 778.885 103.312C776.218 105.312 773.489 107.125 770.697 108.75C767.947 110.375 765.218 111.708 762.51 112.75C759.801 113.792 757.322 114.312 755.072 114.312C753.114 114.312 751.156 113.979 749.197 113.312C747.281 112.646 745.447 111.75 743.697 110.625C741.947 109.542 740.322 108.271 738.822 106.812C737.364 105.396 736.093 103.917 735.01 102.375C733.885 100.833 732.989 99.2917 732.322 97.75C731.656 96.2083 731.301 94.7708 731.26 93.4375V91.9375C731.26 87.5625 732.031 83.4375 733.572 79.5625C735.114 75.6875 737.218 72.125 739.885 68.875C742.593 65.5833 745.739 62.625 749.322 60C752.947 57.3333 756.822 55.0208 760.947 53.0625C760.197 52.3125 759.447 51.5 758.697 50.625C757.989 49.75 757.343 48.7708 756.76 47.6875C756.218 46.5625 755.781 45.3125 755.447 43.9375C755.114 42.5625 754.947 41.0208 754.947 39.3125C754.947 36.3958 755.468 33.5417 756.51 30.75C757.551 27.9583 758.947 25.3333 760.697 22.875C762.447 20.4167 764.489 18.1667 766.822 16.125C769.197 14.0833 771.697 12.3333 774.322 10.875C776.947 9.375 779.635 8.20833 782.385 7.375C785.135 6.54167 787.801 6.125 790.385 6.125C794.676 6.125 797.676 6.5625 799.385 7.4375C800.801 8.1875 802.322 9.27083 803.947 10.6875C805.614 12.1042 807.156 13.6667 808.572 15.375C809.989 17.0417 811.176 18.75 812.135 20.5C813.093 22.2083 813.572 23.75 813.572 25.125C813.572 27.5 813.176 29.9792 812.385 32.5625C811.593 35.1458 810.551 37.6667 809.26 40.125C807.968 42.5417 806.489 44.8333 804.822 47C803.156 49.125 801.468 50.9167 799.76 52.375L789.01 42.875Z" fill="white"/>
<path d="M692.385 166.438C691.051 165.104 689.801 163.833 688.635 162.625C687.51 161.417 686.385 160.229 685.26 159.062C684.135 157.896 682.968 156.708 681.76 155.5C680.593 154.292 679.343 153.021 678.01 151.688C679.76 146.521 681.635 141.312 683.635 136.062C685.635 130.854 687.864 125.375 690.322 119.625C692.781 113.875 695.531 107.771 698.572 101.312C701.614 94.8542 705.072 87.7917 708.947 80.125C707.031 82.9583 705.239 85.4375 703.572 87.5625C701.947 89.6875 700.531 91.4792 699.322 92.9375C697.906 94.6042 696.572 96.0625 695.322 97.3125C692.156 100.354 689.322 102.979 686.822 105.188C684.364 107.396 682.156 109.208 680.197 110.625C678.281 112.083 676.593 113.167 675.135 113.875C673.676 114.583 672.385 114.938 671.26 114.938C670.385 114.938 669.447 114.625 668.447 114C667.489 113.417 666.531 112.667 665.572 111.75C664.656 110.875 663.781 109.938 662.947 108.938C662.114 107.938 661.385 107.042 660.76 106.25C659.718 104.917 659.135 103.188 659.01 101.062C658.885 98.9375 658.822 96.3125 658.822 93.1875C658.822 88.3958 659.218 83.375 660.01 78.125C660.843 72.875 662.01 67.6042 663.51 62.3125C665.01 56.9792 666.822 51.6875 668.947 46.4375C671.072 41.1458 673.447 36.0833 676.072 31.25C678.697 26.375 681.531 21.8125 684.572 17.5625C687.614 13.3125 690.801 9.5 694.135 6.125C695.01 7.04167 696.01 8.10417 697.135 9.3125C698.26 10.4792 699.385 11.6875 700.51 12.9375C701.676 14.1875 702.781 15.4375 703.822 16.6875C704.906 17.8958 705.822 18.9583 706.572 19.875C703.031 23.0833 699.697 26.7083 696.572 30.75C693.489 34.75 690.656 39.0417 688.072 43.625C685.489 48.1667 683.176 52.9167 681.135 57.875C679.093 62.7917 677.364 67.7917 675.947 72.875C674.572 77.9167 673.489 82.9583 672.697 88C671.947 93.0417 671.551 97.9167 671.51 102.625C676.135 100.292 680.385 97.4583 684.26 94.125C688.135 90.7917 691.676 87.1667 694.885 83.25C698.135 79.2917 701.072 75.1458 703.697 70.8125C706.364 66.4792 708.76 62.1042 710.885 57.6875C713.051 53.2708 714.968 48.9167 716.635 44.625C718.343 40.3333 719.885 36.2917 721.26 32.5C722.635 28.7083 723.843 25.25 724.885 22.125C725.968 19 726.947 16.3958 727.822 14.3125C728.239 14.9375 728.801 15.7083 729.51 16.625C730.218 17.5417 730.968 18.5417 731.76 19.625C732.593 20.6667 733.426 21.7292 734.26 22.8125C735.135 23.8958 735.926 24.9167 736.635 25.875C737.385 26.7917 738.031 27.6042 738.572 28.3125C739.114 28.9792 739.468 29.4375 739.635 29.6875C737.426 34.9375 735.239 40.1875 733.072 45.4375C730.947 50.6458 728.76 56.1667 726.51 62C724.26 67.7917 721.926 74.0625 719.51 80.8125C717.093 87.5625 714.489 95.125 711.697 103.5C708.947 111.875 705.968 121.229 702.76 131.562C699.593 141.896 696.135 153.521 692.385 166.438Z" fill="white"/>
<path d="M654.072 27.25C654.072 29.4167 653.885 31.9792 653.51 34.9375C653.135 37.8542 652.489 41.2292 651.572 45.0625C650.697 48.8542 649.489 53.1042 647.947 57.8125C646.447 62.5208 644.572 67.75 642.322 73.5C639.864 79.75 637.343 85.2917 634.76 90.125C632.218 94.9167 629.822 98.9792 627.572 102.312C625.364 105.646 623.426 108.229 621.76 110.062C620.093 111.896 618.926 112.979 618.26 113.312C617.176 113.812 615.989 114.062 614.697 114.062C613.614 114.062 612.51 113.896 611.385 113.562C610.26 113.229 609.301 112.708 608.51 112C608.01 111.583 607.176 110.521 606.01 108.812C604.885 107.104 603.676 104.688 602.385 101.562C601.093 98.3958 599.843 94.4583 598.635 89.75C597.426 85.0417 596.531 79.4375 595.947 72.9375C594.156 75.2708 592.197 77.7708 590.072 80.4375C587.947 83.1042 585.781 85.7708 583.572 88.4375C581.364 91.0625 579.156 93.6458 576.947 96.1875C574.781 98.6875 572.739 100.979 570.822 103.062C568.906 105.146 567.197 106.938 565.697 108.438C564.197 109.979 563.031 111.083 562.197 111.75C561.739 111.333 561.218 110.833 560.635 110.25C560.01 109.667 559.385 109.042 558.76 108.375C558.093 107.75 557.468 107.104 556.885 106.438C556.26 105.771 555.718 105.146 555.26 104.562C561.343 99.2292 567.51 91.7083 573.76 82C580.01 72.2917 585.968 60.5833 591.635 46.875C592.343 47.4583 593.01 48.0417 593.635 48.625C594.26 49.2083 594.864 49.7917 595.447 50.375C595.614 44.5417 595.801 39.3542 596.01 34.8125C596.26 30.2708 596.531 26.2708 596.822 22.8125C597.114 19.3125 597.385 16.3125 597.635 13.8125C597.926 11.3125 598.197 9.1875 598.447 7.4375C598.697 5.6875 598.906 4.27083 599.072 3.1875C599.281 2.0625 599.447 1.16667 599.572 0.5C599.989 0.875 600.614 1.47917 601.447 2.3125C602.281 3.10417 603.218 4 604.26 5C605.301 6 606.385 7.0625 607.51 8.1875C608.676 9.27083 609.76 10.3125 610.76 11.3125C611.801 12.3125 612.697 13.2083 613.447 14C614.239 14.7917 614.781 15.375 615.072 15.75C614.531 17.8333 613.906 20.2708 613.197 23.0625C612.531 25.8125 611.885 29.0625 611.26 32.8125C610.676 36.5208 610.176 40.7708 609.76 45.5625C609.343 50.3542 609.135 55.8125 609.135 61.9375C609.176 67.6458 609.385 73.1667 609.76 78.5C609.926 80.7917 610.114 83.1667 610.322 85.625C610.572 88.0417 610.864 90.4375 611.197 92.8125C611.572 95.1458 612.01 97.3958 612.51 99.5625C613.01 101.729 613.572 103.667 614.197 105.375C619.406 96.7917 623.551 88.4792 626.635 80.4375C629.76 72.3958 632.156 64.5208 633.822 56.8125C635.489 49.1042 636.572 41.5208 637.072 34.0625C637.572 26.5625 637.822 19.0833 637.822 11.625V7.3125C639.989 8.97917 642.051 10.8333 644.01 12.875C645.968 14.9167 647.697 16.8542 649.197 18.6875C650.947 20.8125 652.572 22.9583 654.072 25.125V27.25Z" fill="white"/>
<path d="M574.385 23.8125C574.385 25.7708 573.968 27.9583 573.135 30.375C572.343 32.75 571.281 35.2083 569.947 37.75C568.656 40.25 567.135 42.7708 565.385 45.3125C563.676 47.8542 561.926 50.25 560.135 52.5C561.218 53.5833 562.197 54.5833 563.072 55.5C563.947 56.375 564.572 56.9583 564.947 57.25C564.364 58.25 563.551 59.7292 562.51 61.6875C561.51 63.6042 560.426 65.7917 559.26 68.25C558.135 70.7083 556.968 73.3125 555.76 76.0625C554.593 78.8125 553.531 81.5208 552.572 84.1875C551.614 86.8125 550.822 89.3125 550.197 91.6875C549.614 94.0208 549.322 95.9792 549.322 97.5625C549.322 99.6458 549.593 101.583 550.135 103.375C550.718 105.167 551.551 106.729 552.635 108.062C553.76 109.438 555.135 110.562 556.76 111.438C558.426 112.354 560.343 112.938 562.51 113.188L559.447 117.25C558.947 117.25 558.176 117.125 557.135 116.875C556.093 116.667 554.926 116.271 553.635 115.688C552.343 115.146 550.989 114.396 549.572 113.438C548.156 112.479 546.822 111.25 545.572 109.75C544.322 108.292 543.218 106.521 542.26 104.438C541.301 102.396 540.635 99.9792 540.26 97.1875C538.26 99.2708 536.093 101.333 533.76 103.375C531.468 105.417 529.093 107.25 526.635 108.875C524.176 110.5 521.676 111.812 519.135 112.812C516.635 113.812 514.197 114.312 511.822 114.312C510.447 114.312 509.031 113.938 507.572 113.188C506.156 112.438 504.739 111.438 503.322 110.188C501.947 108.979 500.614 107.562 499.322 105.938C498.072 104.312 496.947 102.646 495.947 100.938C494.989 99.1875 494.197 97.4583 493.572 95.75C492.906 94.0417 492.51 92.4583 492.385 91C492.385 90.4583 492.406 89.8125 492.447 89.0625C492.447 88.2708 492.468 87.4583 492.51 86.625C492.551 85.7917 492.614 84.9792 492.697 84.1875C492.739 83.3958 492.801 82.6875 492.885 82.0625C493.51 78.3542 494.51 74.4375 495.885 70.3125C497.26 66.1875 498.926 62 500.885 57.75C502.885 53.5 505.135 49.2708 507.635 45.0625C510.135 40.8542 512.843 36.8333 515.76 33C518.676 29.1667 521.76 25.625 525.01 22.375C528.26 19.0833 531.593 16.25 535.01 13.875C538.468 11.4583 541.968 9.5625 545.51 8.1875C549.093 6.8125 552.656 6.125 556.197 6.125C557.406 6.125 558.697 6.4375 560.072 7.0625C561.447 7.6875 562.801 8.5 564.135 9.5C565.51 10.5 566.801 11.6458 568.01 12.9375C569.26 14.1875 570.343 15.4792 571.26 16.8125C572.218 18.1042 572.968 19.375 573.51 20.625C574.093 21.8333 574.385 22.8958 574.385 23.8125ZM509.26 103.438C510.051 103.438 511.197 102.979 512.697 102.062C514.239 101.146 516.01 99.8333 518.01 98.125C520.051 96.4167 522.26 94.3125 524.635 91.8125C527.01 89.3125 529.406 86.5 531.822 83.375C534.239 80.2083 536.614 76.75 538.947 73C541.322 69.2083 543.531 65.1667 545.572 60.875L538.197 53.5C538.906 52.75 540.01 51.75 541.51 50.5C543.01 49.25 544.676 47.7708 546.51 46.0625C548.343 44.3542 550.218 42.4583 552.135 40.375C554.093 38.25 555.864 35.9792 557.447 33.5625C559.072 31.1042 560.406 28.5417 561.447 25.875C562.489 23.1667 563.01 20.3542 563.01 17.4375C563.01 15.8125 562.676 14.5833 562.01 13.75C561.385 12.875 560.822 12.4375 560.322 12.4375C557.864 12.4375 555.176 13.3333 552.26 15.125C549.385 16.875 546.426 19.2708 543.385 22.3125C540.343 25.3125 537.281 28.8333 534.197 32.875C531.156 36.9167 528.218 41.2292 525.385 45.8125C522.593 50.3958 519.968 55.1042 517.51 59.9375C515.093 64.7708 512.989 69.5 511.197 74.125C509.406 78.75 507.989 83.1458 506.947 87.3125C505.906 91.4792 505.385 95.1458 505.385 98.3125C505.385 101.729 506.676 103.438 509.26 103.438Z" fill="white"/>
<path d="M471.635 17.1875C471.843 17.6458 472.031 18.25 472.197 19C472.364 19.7083 472.447 20.5833 472.447 21.625C472.447 24.2083 472.072 27.1042 471.322 30.3125C470.572 33.4792 469.531 36.875 468.197 40.5C466.864 44.0833 465.239 47.8125 463.322 51.6875C461.406 55.5625 459.301 59.4792 457.01 63.4375C454.718 67.3958 452.239 71.3333 449.572 75.25C446.906 79.125 444.135 82.875 441.26 86.5C443.051 88.6667 444.947 90.6875 446.947 92.5625C448.989 94.4375 451.135 96.1042 453.385 97.5625C452.01 98.6042 450.718 99.4167 449.51 100C447.885 99.2917 446.01 98.1875 443.885 96.6875C441.801 95.1875 439.635 93.3542 437.385 91.1875C432.51 96.8958 427.614 101.833 422.697 106C417.822 110.167 412.989 113.271 408.197 115.312C407.614 115.562 406.885 115.771 406.01 115.938C405.135 116.146 403.968 116.25 402.51 116.25C401.343 116.25 400.135 115.812 398.885 114.938C397.635 114.062 396.447 113.021 395.322 111.812C394.156 110.604 393.135 109.375 392.26 108.125C391.343 106.917 390.635 105.958 390.135 105.25C389.593 104.458 389.156 103.479 388.822 102.312C388.489 101.146 388.322 99.6875 388.322 97.9375C388.322 95.8125 388.551 93.6458 389.01 91.4375C389.468 89.2292 390.301 86.7083 391.51 83.875C392.01 83.6667 392.906 83.375 394.197 83C395.447 82.5833 396.843 82.1667 398.385 81.75C399.885 81.3333 401.385 80.9375 402.885 80.5625C404.385 80.1875 405.635 79.9167 406.635 79.75C405.385 81.625 404.218 83.4375 403.135 85.1875C402.051 86.8958 401.135 88.625 400.385 90.375C399.593 92.0833 398.968 93.8542 398.51 95.6875C398.051 97.4792 397.822 99.375 397.822 101.375C397.822 102.208 397.989 103 398.322 103.75C398.614 104.542 399.176 104.938 400.01 104.938C401.301 104.938 402.926 104.292 404.885 103C406.843 101.708 409.01 99.9167 411.385 97.625C413.801 95.3333 416.364 92.625 419.072 89.5C421.781 86.375 424.551 83 427.385 79.375C425.801 77.125 424.343 74.75 423.01 72.25C421.676 69.7083 420.51 67.0833 419.51 64.375C418.551 61.625 417.781 58.8125 417.197 55.9375C416.656 53.0625 416.385 50.125 416.385 47.125C416.385 42.7083 417.072 38.625 418.447 34.875C419.864 31.125 421.718 27.7292 424.01 24.6875C426.343 21.6042 428.989 18.8958 431.947 16.5625C434.947 14.2292 438.031 12.2708 441.197 10.6875C444.364 9.10417 447.489 7.91667 450.572 7.125C453.697 6.29167 456.551 5.875 459.135 5.875C460.551 5.875 461.614 6.14583 462.322 6.6875C463.031 7.14583 463.864 7.85417 464.822 8.8125C465.781 9.72917 466.718 10.7083 467.635 11.75C468.593 12.7917 469.426 13.8125 470.135 14.8125C470.885 15.7708 471.385 16.5625 471.635 17.1875ZM427.385 53.875C427.385 56.6667 427.822 59.6667 428.697 62.875C429.572 66.0833 430.801 69.3333 432.385 72.625C434.885 69.1667 437.322 65.625 439.697 62C442.114 58.3333 444.385 54.6875 446.51 51.0625C448.676 47.4375 450.656 43.875 452.447 40.375C454.281 36.875 455.843 33.5625 457.135 30.4375C458.468 27.2708 459.489 24.3542 460.197 21.6875C460.947 18.9792 461.322 16.625 461.322 14.625C461.322 14.0833 461.218 13.75 461.01 13.625C460.801 13.5 460.51 13.4375 460.135 13.4375C459.551 13.4375 458.322 13.7917 456.447 14.5C454.614 15.1667 452.489 16.2292 450.072 17.6875C447.656 19.1042 445.114 20.9167 442.447 23.125C439.781 25.2917 437.322 27.875 435.072 30.875C432.864 33.875 431.031 37.2917 429.572 41.125C428.114 44.9583 427.385 49.2083 427.385 53.875Z" fill="white"/>
<path d="M404.885 23.8125C404.885 25.7708 404.468 27.9583 403.635 30.375C402.843 32.75 401.781 35.2083 400.447 37.75C399.156 40.25 397.635 42.7708 395.885 45.3125C394.176 47.8542 392.426 50.25 390.635 52.5C391.718 53.5833 392.697 54.5833 393.572 55.5C394.447 56.375 395.072 56.9583 395.447 57.25C394.864 58.25 394.051 59.7292 393.01 61.6875C392.01 63.6042 390.926 65.7917 389.76 68.25C388.635 70.7083 387.468 73.3125 386.26 76.0625C385.093 78.8125 384.031 81.5208 383.072 84.1875C382.114 86.8125 381.322 89.3125 380.697 91.6875C380.114 94.0208 379.822 95.9792 379.822 97.5625C379.822 99.6458 380.093 101.583 380.635 103.375C381.218 105.167 382.051 106.729 383.135 108.062C384.26 109.438 385.635 110.562 387.26 111.438C388.926 112.354 390.843 112.938 393.01 113.188L389.947 117.25C389.447 117.25 388.676 117.125 387.635 116.875C386.593 116.667 385.426 116.271 384.135 115.688C382.843 115.146 381.489 114.396 380.072 113.438C378.656 112.479 377.322 111.25 376.072 109.75C374.822 108.292 373.718 106.521 372.76 104.438C371.801 102.396 371.135 99.9792 370.76 97.1875C368.76 99.2708 366.593 101.333 364.26 103.375C361.968 105.417 359.593 107.25 357.135 108.875C354.676 110.5 352.176 111.812 349.635 112.812C347.135 113.812 344.697 114.312 342.322 114.312C340.947 114.312 339.531 113.938 338.072 113.188C336.656 112.438 335.239 111.438 333.822 110.188C332.447 108.979 331.114 107.562 329.822 105.938C328.572 104.312 327.447 102.646 326.447 100.938C325.489 99.1875 324.697 97.4583 324.072 95.75C323.406 94.0417 323.01 92.4583 322.885 91C322.885 90.4583 322.906 89.8125 322.947 89.0625C322.947 88.2708 322.968 87.4583 323.01 86.625C323.051 85.7917 323.114 84.9792 323.197 84.1875C323.239 83.3958 323.301 82.6875 323.385 82.0625C324.01 78.3542 325.01 74.4375 326.385 70.3125C327.76 66.1875 329.426 62 331.385 57.75C333.385 53.5 335.635 49.2708 338.135 45.0625C340.635 40.8542 343.343 36.8333 346.26 33C349.176 29.1667 352.26 25.625 355.51 22.375C358.76 19.0833 362.093 16.25 365.51 13.875C368.968 11.4583 372.468 9.5625 376.01 8.1875C379.593 6.8125 383.156 6.125 386.697 6.125C387.906 6.125 389.197 6.4375 390.572 7.0625C391.947 7.6875 393.301 8.5 394.635 9.5C396.01 10.5 397.301 11.6458 398.51 12.9375C399.76 14.1875 400.843 15.4792 401.76 16.8125C402.718 18.1042 403.468 19.375 404.01 20.625C404.593 21.8333 404.885 22.8958 404.885 23.8125ZM339.76 103.438C340.551 103.438 341.697 102.979 343.197 102.062C344.739 101.146 346.51 99.8333 348.51 98.125C350.551 96.4167 352.76 94.3125 355.135 91.8125C357.51 89.3125 359.906 86.5 362.322 83.375C364.739 80.2083 367.114 76.75 369.447 73C371.822 69.2083 374.031 65.1667 376.072 60.875L368.697 53.5C369.406 52.75 370.51 51.75 372.01 50.5C373.51 49.25 375.176 47.7708 377.01 46.0625C378.843 44.3542 380.718 42.4583 382.635 40.375C384.593 38.25 386.364 35.9792 387.947 33.5625C389.572 31.1042 390.906 28.5417 391.947 25.875C392.989 23.1667 393.51 20.3542 393.51 17.4375C393.51 15.8125 393.176 14.5833 392.51 13.75C391.885 12.875 391.322 12.4375 390.822 12.4375C388.364 12.4375 385.676 13.3333 382.76 15.125C379.885 16.875 376.926 19.2708 373.885 22.3125C370.843 25.3125 367.781 28.8333 364.697 32.875C361.656 36.9167 358.718 41.2292 355.885 45.8125C353.093 50.3958 350.468 55.1042 348.01 59.9375C345.593 64.7708 343.489 69.5 341.697 74.125C339.906 78.75 338.489 83.1458 337.447 87.3125C336.406 91.4792 335.885 95.1458 335.885 98.3125C335.885 101.729 337.176 103.438 339.76 103.438Z" fill="white"/>
<path d="M346.51 24.3125C344.468 24.2292 342.406 24.125 340.322 24C338.239 23.875 336.01 23.75 333.635 23.625C331.26 23.5 328.635 23.3958 325.76 23.3125C322.926 23.2292 319.718 23.1875 316.135 23.1875C311.551 23.1875 307.114 23.3125 302.822 23.5625C298.531 23.7708 294.281 24.1875 290.072 24.8125C285.864 25.4375 281.656 26.3125 277.447 27.4375C273.239 28.5625 268.926 30.0417 264.51 31.875C266.301 36.875 267.739 41.7708 268.822 46.5625C269.906 51.3542 270.739 55.9167 271.322 60.25C271.947 64.5833 272.364 68.6458 272.572 72.4375C272.781 76.2292 272.885 79.6458 272.885 82.6875C272.885 85.5625 272.822 88.1042 272.697 90.3125C272.572 92.4792 272.426 94.2917 272.26 95.75C272.093 97.5 271.885 99 271.635 100.25C273.635 95.5 275.572 90.4792 277.447 85.1875C279.364 79.8542 281.176 74.5833 282.885 69.375C284.593 64.125 286.176 59.0625 287.635 54.1875C289.093 49.3125 290.364 44.9375 291.447 41.0625C292.572 37.1875 293.489 33.9583 294.197 31.375C294.906 28.75 295.364 27.0833 295.572 26.375C296.489 27.125 297.593 28.0833 298.885 29.25C300.218 30.4167 301.551 31.625 302.885 32.875C304.218 34.125 305.447 35.3333 306.572 36.5C307.739 37.625 308.635 38.5625 309.26 39.3125C308.218 43.1875 306.843 47.4583 305.135 52.125C303.426 56.7917 301.531 61.6042 299.447 66.5625C297.406 71.5208 295.26 76.5 293.01 81.5C290.76 86.4583 288.572 91.1667 286.447 95.625C284.322 100.083 282.343 104.146 280.51 107.812C278.718 111.479 277.239 114.5 276.072 116.875C275.447 116.25 274.676 115.396 273.76 114.312C272.843 113.229 271.906 112.125 270.947 111C269.989 109.917 269.093 108.896 268.26 107.938C267.468 106.979 266.885 106.292 266.51 105.875C266.593 105.375 266.739 104.521 266.947 103.312C267.197 102.062 267.426 100.521 267.635 98.6875C267.885 96.8125 268.093 94.6458 268.26 92.1875C268.426 89.7292 268.51 87 268.51 84C268.51 80.5833 268.364 76.9167 268.072 73C267.781 69.0417 267.197 64.9375 266.322 60.6875C265.489 56.4375 264.281 52.0625 262.697 47.5625C261.114 43.0625 259.051 38.5208 256.51 33.9375C256.468 33.9375 256.447 33.9167 256.447 33.875C256.406 33.8333 256.385 33.7292 256.385 33.5625C256.385 33.1458 256.531 32.5833 256.822 31.875C257.114 31.125 257.489 30.3333 257.947 29.5C258.447 28.625 258.968 27.7708 259.51 26.9375C260.093 26.0625 260.635 25.3125 261.135 24.6875C261.343 24.4375 262.343 23.8542 264.135 22.9375C265.926 21.9792 268.385 20.8542 271.51 19.5625C274.676 18.2708 278.426 16.8958 282.76 15.4375C287.135 13.9792 291.968 12.6458 297.26 11.4375C302.551 10.1875 308.239 9.16667 314.322 8.375C320.447 7.58333 326.822 7.1875 333.447 7.1875C333.739 7.52083 334.197 8.08333 334.822 8.875C335.489 9.625 336.239 10.5208 337.072 11.5625C337.906 12.5625 338.781 13.6667 339.697 14.875C340.656 16.0417 341.572 17.2083 342.447 18.375C343.322 19.5 344.114 20.5833 344.822 21.625C345.531 22.6667 346.093 23.5625 346.51 24.3125Z" fill="white"/>
<path d="M249.822 27.25C249.822 29.4167 249.635 31.9792 249.26 34.9375C248.885 37.8542 248.239 41.2292 247.322 45.0625C246.447 48.8542 245.239 53.1042 243.697 57.8125C242.197 62.5208 240.322 67.75 238.072 73.5C235.614 79.75 233.093 85.2917 230.51 90.125C227.968 94.9167 225.572 98.9792 223.322 102.312C221.114 105.646 219.176 108.229 217.51 110.062C215.843 111.896 214.676 112.979 214.01 113.312C212.926 113.812 211.739 114.062 210.447 114.062C209.364 114.062 208.26 113.896 207.135 113.562C206.01 113.229 205.051 112.708 204.26 112C203.76 111.583 202.926 110.521 201.76 108.812C200.635 107.104 199.426 104.688 198.135 101.562C196.843 98.3958 195.593 94.4583 194.385 89.75C193.176 85.0417 192.281 79.4375 191.697 72.9375C189.906 75.2708 187.947 77.7708 185.822 80.4375C183.697 83.1042 181.531 85.7708 179.322 88.4375C177.114 91.0625 174.906 93.6458 172.697 96.1875C170.531 98.6875 168.489 100.979 166.572 103.062C164.656 105.146 162.947 106.938 161.447 108.438C159.947 109.979 158.781 111.083 157.947 111.75C157.489 111.333 156.968 110.833 156.385 110.25C155.76 109.667 155.135 109.042 154.51 108.375C153.843 107.75 153.218 107.104 152.635 106.438C152.01 105.771 151.468 105.146 151.01 104.562C157.093 99.2292 163.26 91.7083 169.51 82C175.76 72.2917 181.718 60.5833 187.385 46.875C188.093 47.4583 188.76 48.0417 189.385 48.625C190.01 49.2083 190.614 49.7917 191.197 50.375C191.364 44.5417 191.551 39.3542 191.76 34.8125C192.01 30.2708 192.281 26.2708 192.572 22.8125C192.864 19.3125 193.135 16.3125 193.385 13.8125C193.676 11.3125 193.947 9.1875 194.197 7.4375C194.447 5.6875 194.656 4.27083 194.822 3.1875C195.031 2.0625 195.197 1.16667 195.322 0.5C195.739 0.875 196.364 1.47917 197.197 2.3125C198.031 3.10417 198.968 4 200.01 5C201.051 6 202.135 7.0625 203.26 8.1875C204.426 9.27083 205.51 10.3125 206.51 11.3125C207.551 12.3125 208.447 13.2083 209.197 14C209.989 14.7917 210.531 15.375 210.822 15.75C210.281 17.8333 209.656 20.2708 208.947 23.0625C208.281 25.8125 207.635 29.0625 207.01 32.8125C206.426 36.5208 205.926 40.7708 205.51 45.5625C205.093 50.3542 204.885 55.8125 204.885 61.9375C204.926 67.6458 205.135 73.1667 205.51 78.5C205.676 80.7917 205.864 83.1667 206.072 85.625C206.322 88.0417 206.614 90.4375 206.947 92.8125C207.322 95.1458 207.76 97.3958 208.26 99.5625C208.76 101.729 209.322 103.667 209.947 105.375C215.156 96.7917 219.301 88.4792 222.385 80.4375C225.51 72.3958 227.906 64.5208 229.572 56.8125C231.239 49.1042 232.322 41.5208 232.822 34.0625C233.322 26.5625 233.572 19.0833 233.572 11.625V7.3125C235.739 8.97917 237.801 10.8333 239.76 12.875C241.718 14.9167 243.447 16.8542 244.947 18.6875C246.697 20.8125 248.322 22.9583 249.822 25.125V27.25Z" fill="white"/>
<path d="M170.135 23.8125C170.135 25.7708 169.718 27.9583 168.885 30.375C168.093 32.75 167.031 35.2083 165.697 37.75C164.406 40.25 162.885 42.7708 161.135 45.3125C159.426 47.8542 157.676 50.25 155.885 52.5C156.968 53.5833 157.947 54.5833 158.822 55.5C159.697 56.375 160.322 56.9583 160.697 57.25C160.114 58.25 159.301 59.7292 158.26 61.6875C157.26 63.6042 156.176 65.7917 155.01 68.25C153.885 70.7083 152.718 73.3125 151.51 76.0625C150.343 78.8125 149.281 81.5208 148.322 84.1875C147.364 86.8125 146.572 89.3125 145.947 91.6875C145.364 94.0208 145.072 95.9792 145.072 97.5625C145.072 99.6458 145.343 101.583 145.885 103.375C146.468 105.167 147.301 106.729 148.385 108.062C149.51 109.438 150.885 110.562 152.51 111.438C154.176 112.354 156.093 112.938 158.26 113.188L155.197 117.25C154.697 117.25 153.926 117.125 152.885 116.875C151.843 116.667 150.676 116.271 149.385 115.688C148.093 115.146 146.739 114.396 145.322 113.438C143.906 112.479 142.572 111.25 141.322 109.75C140.072 108.292 138.968 106.521 138.01 104.438C137.051 102.396 136.385 99.9792 136.01 97.1875C134.01 99.2708 131.843 101.333 129.51 103.375C127.218 105.417 124.843 107.25 122.385 108.875C119.926 110.5 117.426 111.812 114.885 112.812C112.385 113.812 109.947 114.312 107.572 114.312C106.197 114.312 104.781 113.938 103.322 113.188C101.906 112.438 100.489 111.438 99.0723 110.188C97.6973 108.979 96.3639 107.562 95.0723 105.938C93.8223 104.312 92.6973 102.646 91.6973 100.938C90.7389 99.1875 89.9473 97.4583 89.3223 95.75C88.6556 94.0417 88.2598 92.4583 88.1348 91C88.1348 90.4583 88.1556 89.8125 88.1973 89.0625C88.1973 88.2708 88.2181 87.4583 88.2598 86.625C88.3014 85.7917 88.3639 84.9792 88.4473 84.1875C88.4889 83.3958 88.5514 82.6875 88.6348 82.0625C89.2598 78.3542 90.2598 74.4375 91.6348 70.3125C93.0098 66.1875 94.6764 62 96.6348 57.75C98.6348 53.5 100.885 49.2708 103.385 45.0625C105.885 40.8542 108.593 36.8333 111.51 33C114.426 29.1667 117.51 25.625 120.76 22.375C124.01 19.0833 127.343 16.25 130.76 13.875C134.218 11.4583 137.718 9.5625 141.26 8.1875C144.843 6.8125 148.406 6.125 151.947 6.125C153.156 6.125 154.447 6.4375 155.822 7.0625C157.197 7.6875 158.551 8.5 159.885 9.5C161.26 10.5 162.551 11.6458 163.76 12.9375C165.01 14.1875 166.093 15.4792 167.01 16.8125C167.968 18.1042 168.718 19.375 169.26 20.625C169.843 21.8333 170.135 22.8958 170.135 23.8125ZM105.01 103.438C105.801 103.438 106.947 102.979 108.447 102.062C109.989 101.146 111.76 99.8333 113.76 98.125C115.801 96.4167 118.01 94.3125 120.385 91.8125C122.76 89.3125 125.156 86.5 127.572 83.375C129.989 80.2083 132.364 76.75 134.697 73C137.072 69.2083 139.281 65.1667 141.322 60.875L133.947 53.5C134.656 52.75 135.76 51.75 137.26 50.5C138.76 49.25 140.426 47.7708 142.26 46.0625C144.093 44.3542 145.968 42.4583 147.885 40.375C149.843 38.25 151.614 35.9792 153.197 33.5625C154.822 31.1042 156.156 28.5417 157.197 25.875C158.239 23.1667 158.76 20.3542 158.76 17.4375C158.76 15.8125 158.426 14.5833 157.76 13.75C157.135 12.875 156.572 12.4375 156.072 12.4375C153.614 12.4375 150.926 13.3333 148.01 15.125C145.135 16.875 142.176 19.2708 139.135 22.3125C136.093 25.3125 133.031 28.8333 129.947 32.875C126.906 36.9167 123.968 41.2292 121.135 45.8125C118.343 50.3958 115.718 55.1042 113.26 59.9375C110.843 64.7708 108.739 69.5 106.947 74.125C105.156 78.75 103.739 83.1458 102.697 87.3125C101.656 91.4792 101.135 95.1458 101.135 98.3125C101.135 101.729 102.426 103.438 105.01 103.438Z" fill="white"/>
<path d="M100.885 25.625C100.885 28.625 100.344 31.6875 99.2604 34.8125C98.2187 37.8958 96.7812 40.9583 94.9479 44C93.1146 47 90.9687 49.8958 88.5104 52.6875C86.0521 55.4792 83.4479 58.0625 80.6979 60.4375C77.9479 62.8125 75.0937 64.9375 72.1354 66.8125C69.1771 68.6458 66.3021 70.1042 63.5104 71.1875C63.0521 70.5208 62.4688 69.7292 61.7604 68.8125C61.0938 67.8542 60.3646 66.875 59.5729 65.875C58.7813 64.8333 57.9688 63.8125 57.1354 62.8125C56.3438 61.7708 55.5729 60.8125 54.8229 59.9375C60.7813 57.6042 66.1146 54.8333 70.8229 51.625C75.5729 48.4167 79.5937 45.0625 82.8854 41.5625C86.2187 38.0208 88.7604 34.4583 90.5104 30.875C92.3021 27.25 93.1979 23.875 93.1979 20.75C93.1979 20.3333 93.1354 19.8958 93.0104 19.4375C92.8854 18.9792 92.6771 18.5833 92.3854 18.25C92.0937 17.9167 91.6979 17.6875 91.1979 17.5625C90.7396 17.3958 90.1771 17.3958 89.5104 17.5625C87.5521 17.9792 85.3854 18.75 83.0104 19.875C80.6771 21 78.1979 22.4167 75.5729 24.125C72.9896 25.7917 70.2812 27.7292 67.4479 29.9375C64.6562 32.1458 61.8229 34.5208 58.9479 37.0625C57.4063 41.8958 55.6354 47.0208 53.6354 52.4375C51.6354 57.8125 49.4688 63.1875 47.1354 68.5625C44.8021 73.8958 42.3438 79.0833 39.7604 84.125C37.2188 89.1667 34.6146 93.7917 31.9479 98C29.3229 102.167 26.6771 105.771 24.0104 108.812C21.3854 111.896 18.8437 114.104 16.3854 115.438C15.7604 115.771 14.9896 116.083 14.0729 116.375C13.1979 116.667 12.0938 116.875 10.7604 117C10.2604 117.042 9.67708 116.833 9.01042 116.375C8.30208 115.917 7.59375 115.333 6.88542 114.625C6.17708 113.917 5.46875 113.125 4.76042 112.25C4.05208 111.375 3.40625 110.542 2.82292 109.75C2.19792 108.958 1.69792 108.25 1.32292 107.625C0.90625 107 0.635417 106.583 0.510417 106.375C0.177083 105.75 0.0104167 105 0.0104167 104.125C-0.03125 103.292 0.0520833 102.458 0.260417 101.625C1.09375 98.8333 2.26042 95.7708 3.76042 92.4375C5.26042 89.1042 7.03125 85.625 9.07292 82C11.0729 78.3333 13.3021 74.5833 15.7604 70.75C18.2604 66.875 20.9271 63.0417 23.7604 59.25C26.6354 55.4167 29.6354 51.6458 32.7604 47.9375C35.9271 44.2292 39.1771 40.6875 42.5104 37.3125C44.6354 30.6875 46.3854 24.4167 47.7604 18.5C49.1354 12.5833 49.9479 7.4375 50.1979 3.0625C51.8646 3.72917 53.4479 4.58333 54.9479 5.625C56.4479 6.66667 57.8021 7.75 59.0104 8.875C60.2188 10 61.2813 11.125 62.1979 12.25C63.1146 13.375 63.8437 14.375 64.3854 15.25C64.3021 15.9583 64.1979 16.6875 64.0729 17.4375C63.9479 18.1458 63.7813 18.9167 63.5729 19.75C67.7813 17.0417 71.9062 14.9375 75.9479 13.4375C80.0312 11.8958 83.9896 11.125 87.8229 11.125C88.6146 11.125 89.4687 11.375 90.3854 11.875C91.3437 12.375 92.3021 13.0417 93.2604 13.875C94.2187 14.6667 95.1354 15.5625 96.0104 16.5625C96.9271 17.5625 97.7396 18.5833 98.4479 19.625C99.1562 20.625 99.7187 21.5833 100.135 22.5C100.594 23.375 100.844 24.1042 100.885 24.6875V25.625ZM10.3854 104.188C11.3438 104.188 12.6354 103.125 14.2604 101C15.8854 98.875 17.6979 95.9792 19.6979 92.3125C21.7396 88.6458 23.8854 84.375 26.1354 79.5C28.3854 74.625 30.6146 69.4583 32.8229 64C29.5313 67.9167 26.4687 71.7917 23.6354 75.625C20.8437 79.4583 18.4062 83.1042 16.3229 86.5625C14.2812 89.9792 12.6771 93.1458 11.5104 96.0625C10.3438 98.9375 9.76042 101.396 9.76042 103.438C9.76042 103.938 9.96875 104.188 10.3854 104.188Z" fill="white"/>
<path d="M876.537 111.964L919.454 126.893C927.922 129.838 936.796 131.492 945.762 131.672C965.937 132.076 972.135 124.489 972.135 124.489C944.962 111.352 881.036 106.41 881.036 106.41L881.647 109.171L876.537 111.964Z" fill="white"/>
<path d="M927.13 123.066C928.124 124.079 930.683 123.723 932.067 123.446C932.313 123.397 940.06 121.659 941.019 120.826C941.919 120.044 941.408 118.366 938.63 118.072C935.053 117.713 932.378 118.782 931.414 113.004C931.4 113.002 931.385 112.999 931.371 112.996C932.081 120.158 937.051 117.501 940.044 118.773C940.738 119.068 941.47 120.019 940.728 120.547C940.007 121.059 937.517 121.695 936.713 121.853C934.677 122.254 928.484 124.567 927.131 122.523C926.606 121.611 926.872 120.548 926.924 119.568C927.078 116.695 926.898 114.289 926.497 112.134L926.444 112.124L926.438 112.123C926.435 112.122 926.433 112.123 926.43 112.122C927.267 120.339 925.652 121.649 927.13 123.066Z" fill="white"/>
<path d="M917.44 113.665C917.443 113.67 917.455 113.7 917.458 113.705C917.45 113.685 917.446 113.674 917.44 113.665ZM910.366 117.962C910.565 118.382 911.01 118.819 911.45 119.017C912.643 119.539 913.621 118.788 916.288 118.281C918.744 117.788 921.524 117.476 921.885 116.338C922.245 115.232 920.287 114.184 919.147 113.82C918.865 113.752 918.188 113.685 917.413 113.591C917.244 113.154 917.426 112.552 918.496 110.84C918.488 110.838 918.481 110.837 918.474 110.837C917.395 112.344 916.957 113.127 917.262 113.78C917.269 113.795 918.877 114.02 919.072 114.09C919.737 114.327 920.394 114.673 920.937 115.126C923.499 117.268 917.593 117.319 914.321 118.306C913.424 118.576 912.185 119.113 911.357 118.529C909.268 117.057 911.74 114.781 912.459 113.294C913.022 112.128 913.494 111.092 913.899 110.159C913.895 110.159 913.891 110.158 913.887 110.157C912.284 113.041 912.529 112.925 911.746 114.009C911.071 114.956 909.695 116.577 910.366 117.962Z" fill="white"/>
<path d="M953.278 95.3463C953.155 93.5955 951.1 90.6818 949.075 89.2752C943.512 81.5174 947.101 85.8351 942.297 80.0101C941.28 78.7778 940.468 77.5876 939.247 76.5086C937.899 75.3193 936.411 74.1983 935.06 73.0422C932.884 71.1785 932.018 68.1447 930.434 65.872C930.843 65.2493 931.009 64.3297 931.319 63.7692C931.571 63.3147 932.23 63.1868 932.237 62.6123C932.243 62.1026 932.062 61.578 932.22 61.0394C932.366 60.5437 932.827 60.2695 933.05 59.8045C934.763 56.2198 932.677 52.7893 929.397 51.9301C924.29 50.5928 921.07 55.0278 922.138 59.2615C922.432 60.59 921.854 61.084 921.742 61.204C918.956 64.1703 916.936 63.6965 914.035 64.5443C912.702 64.9332 908.965 66.0323 907.918 66.2959C902.232 67.7287 902.155 68.3768 899.831 68.7902C898.024 69.1125 896.155 69.0442 894.4 69.638C892.549 70.2633 890.861 71.2775 889.043 71.9842C887.654 72.5246 886.306 73.1858 884.931 73.7656L884.929 73.7595C884.929 73.7595 884.196 74.0704 884.183 74.0748C883.203 74.4198 882.848 74.3296 881.937 74.4277C881.798 74.4426 881.511 74.4671 880.773 74.581C879.711 74.7439 879.424 74.8867 878.799 75.1257C877.826 75.4997 877.007 75.9192 876.513 76.7714C876.389 76.9851 876.328 77.1156 876.261 77.3704C876.17 77.7173 876.157 78.114 876.141 78.4678C876.072 79.9304 876.596 80.7466 877.247 79.6142C877.389 79.3673 877.631 79.0029 878.182 78.5755C878.714 78.163 880.192 77.8311 880.034 78.4161C879.755 79.4531 879.209 79.1658 878.767 79.3743C878.38 79.5573 878.267 80.3017 879.291 80.2229C880.099 80.1616 880.958 79.6528 881.66 79.2876C882.384 78.9101 882.918 77.6376 884.225 77.2811C886.369 77.0306 889.386 76.0348 891.617 75.6933C893.352 75.4279 895.223 75.1871 896.812 74.5521C898.102 74.0362 899.119 73.5922 900.591 73.5922C901.982 73.5922 903.678 73.3391 904.923 73.4293C904.684 74.0853 902.107 76.118 901.588 76.7118C899.317 79.3112 896.612 83.0281 896.185 86.4998C895.94 88.4914 895.959 90.6292 897.097 92.344C899.181 95.482 904.969 96.5277 907.967 97.09C915.199 98.4449 916.944 98.338 920.419 98.1865C920.168 98.4974 919.916 98.7917 919.664 99.0255C915.728 102.67 917.036 103.823 912.459 113.294C911.74 114.781 909.268 117.057 911.357 118.529C912.185 119.113 913.424 118.576 914.321 118.306C917.593 117.319 923.499 117.268 920.937 115.126C920.394 114.673 919.737 114.327 919.072 114.09C918.877 114.02 917.269 113.795 917.262 113.78C916.604 112.374 919.38 110.381 924.604 101.825C924.616 105.752 927.365 110.807 926.924 119.568C926.875 120.548 926.606 121.611 927.131 122.523C928.484 124.567 934.677 122.254 936.713 121.853C937.517 121.695 940.007 121.059 940.728 120.547C941.47 120.019 940.738 119.068 940.044 118.773C936.969 117.466 931.811 120.306 931.322 112.395C930.353 96.7073 933.152 92.4666 926.172 90.4646C923.163 89.601 920.434 87.986 917.346 87.2101C915.724 86.8019 914.055 86.6916 912.441 86.3097C911.666 86.1249 909.155 86.0654 909.826 84.9234C913.34 80.9288 916.675 80.5601 922.694 75.5899C924.372 74.2035 926.579 71.3099 927.314 72.2882C929.462 75.1441 932.398 77.6086 935.242 79.7062C936.59 80.7011 937.311 82.0096 938.345 83.2952C939.952 85.2921 940.584 84.8962 946.337 90.1799C947.073 91.6066 946.869 93.2207 947.214 93.9432C947.554 94.657 947.934 95.5784 948.542 96.1126C948.711 96.2606 949.059 96.4769 949.294 96.3762C949.906 96.1152 949.099 95.1956 949.258 94.5615C949.556 93.3731 950.685 95.9164 950.744 96.7441C950.777 97.2039 950.691 97.6996 951.069 98.0394C951.551 98.4738 952.126 98.0289 952.465 97.6356C952.784 97.266 953.276 96.8036 953.364 96.2956C953.418 95.9856 953.299 95.6572 953.278 95.3463Z" fill="white"/>
<path d="M900.806 94.1325C896.912 92.9484 896.157 89.5529 897.041 85.6249C898.113 81.0804 902.386 76.9842 905.623 74.0048C901.676 78.6991 896.763 83.7918 897.838 89.855C898.217 92.0051 899.434 93.0272 900.806 94.1325Z" fill="white"/>
<path d="M911.43 116.268C911.754 115.391 912.558 114.341 912.705 114.096C912.882 113.807 915.233 108.748 916.406 105.331C918.001 100.82 918.897 100.655 921.463 98.6525C920.652 100.455 919.463 100.361 917.551 105.732C916.555 108.461 914.087 113.478 912.683 114.864C912.106 115.437 911.634 115.99 911.43 116.268Z" fill="white"/>
<path d="M927.753 120.725C927.795 111.961 926.148 107.481 925.593 102.773C927.57 108.467 928.931 114.81 927.753 120.725Z" fill="white"/>
<path d="M947.418 89.9461C946.84 89.5406 939.986 84.2823 939.248 83.5607C938.215 82.5596 937.293 80.8247 936.464 79.6047C937.088 80.1818 937.284 80.4279 938.078 81.3458C940.43 84.0432 939.56 82.8495 942.986 85.6398C944.263 86.6645 946.237 88.5484 947.418 89.9461Z" fill="white"/>
<path d="M922.851 97.386C917.451 97.9816 912.149 97.6794 905.238 95.5836C910.53 96.3219 912.549 97.2336 922.085 97.3633C922.573 97.3738 922.851 97.386 922.851 97.386Z" fill="white"/>
<path d="M925.557 71.6682C918.856 79.1861 914.533 78.9269 908.849 84.3813C912.982 79.1204 916.188 79.7072 925.557 71.6682Z" fill="white"/>
<path d="M876.845 78.3103C876.797 77.4818 876.999 76.9046 877.664 76.3923C879.342 75.153 882.275 74.9087 883.811 74.7589C885.765 74.554 884.706 74.5732 892.067 71.2688C897.61 68.7378 897.41 70.9492 902.901 68.7176C905.647 67.5922 907.063 67.3592 910.992 66.24C918.15 64.1433 917.686 65.3817 921.471 62.8322C918.99 65.52 917.323 65.4158 914.764 66.1769C912.38 66.8626 911.092 67.3978 907.349 68.3218C902.963 69.4866 902.612 69.9271 901.047 70.273C900.37 70.4315 896.769 70.9176 896.524 70.9413C895.187 71.0683 894.833 71.0648 892.344 71.9528C882.101 75.6172 887.363 74.1064 882.983 75.0689C877.251 76.3257 877.113 77.2549 876.845 78.3103Z" fill="white"/>
<path d="M923.304 61.0885C920.291 53.2299 928.458 49.5944 932.277 54.6487C929.693 53.1808 927.328 52.7193 924.984 54.5453C925.028 54.5086 924.994 54.5374 925.002 54.5304C923.178 56.3118 923.162 58.5197 923.304 61.0885Z" fill="white"/>
</svg>
